<svg xmlns:xlink="http://www.w3.org/1999/xlink" xmlns="http://www.w3.org/2000/svg" style="background:white;color:black;font-family:system-ui, sans-serif;font-size:14px;margin:20px" viewBox="0 0 1800 600" height="600" width="1800" text-anchor="middle" font-size="10" font-family="system-ui, sans-serif" fill="currentColor" class="plot-d6a7b5"><style>:where(.plot-d6a7b5) {
  --plot-background: white;
  display: block;
  height: auto;
  height: intrinsic;
  max-width: 100%;
}
:where(.plot-d6a7b5 text),
:where(.plot-d6a7b5 tspan) {
  white-space: pre;
}</style><g transform="translate(0,-9)" aria-label="fx-axis tick label"><g transform="translate(2,0)"><text transform="translate(83.5,50)">window 0 </text></g><g transform="translate(99,0)"><text transform="translate(83.5,50)">window 0 (R)</text></g><g transform="translate(196,0)"><text transform="translate(83.5,50)">window 1 </text></g><g transform="translate(293,0)"><text transform="translate(83.5,50)">window 1 (R)</text></g><g transform="translate(390,0)"><text transform="translate(83.5,50)">window 2 </text></g><g transform="translate(487,0)"><text transform="translate(83.5,50)">window 2 (R)</text></g><g transform="translate(584,0)"><text transform="translate(83.5,50)">window 3 </text></g><g transform="translate(681,0)"><text transform="translate(83.5,50)">window 3 (R)</text></g><g transform="translate(778,0)"><text transform="translate(83.5,50)">window 4 </text></g><g transform="translate(875,0)"><text transform="translate(83.5,50)">window 4 (R)</text></g><g transform="translate(972,0)"><text transform="translate(83.5,50)">window 5 </text></g><g transform="translate(1069,0)"><text transform="translate(83.5,50)">window 5 (R)</text></g><g transform="translate(1166,0)"><text transform="translate(83.5,50)">window 7 </text></g><g transform="translate(1263,0)"><text transform="translate(83.5,50)">window 7 (R)</text></g><g transform="translate(1360,0)"><text transform="translate(83.5,50)">window 8 </text></g><g transform="translate(1457,0)"><text transform="translate(83.5,50)">window 8 (R)</text></g><g transform="translate(1554,0)"><text transform="translate(83.5,50)">window 9 </text></g><g transform="translate(1651,0)"><text transform="translate(83.5,50)">window 9 (R)</text></g></g><g transform="translate(0,-47)" aria-label="fx-axis label"><text transform="translate(910,50)" y="0.71em" /></g><g aria-hidden="true" aria-label="y-grid"><g transform="translate(2,0)" stroke-opacity="0.1" stroke="currentColor"><line y2="520" y1="520" x2="127" x1="40" /><line y2="487.2174004217424" y1="487.2174004217424" x2="127" x1="40" /><line y2="454.4348008434848" y1="454.4348008434848" x2="127" x1="40" /><line y2="421.65220126522723" y1="421.65220126522723" x2="127" x1="40" /><line y2="388.86960168696965" y1="388.86960168696965" x2="127" x1="40" /><line y2="356.0870021087121" y1="356.0870021087121" x2="127" x1="40" /><line y2="323.3044025304544" y1="323.3044025304544" x2="127" x1="40" /><line y2="290.52180295219694" y1="290.52180295219694" x2="127" x1="40" /><line y2="257.7392033739393" y1="257.7392033739393" x2="127" x1="40" /><line y2="224.95660379568173" y1="224.95660379568173" x2="127" x1="40" /><line y2="192.17400421742417" y1="192.17400421742417" x2="127" x1="40" /><line y2="159.39140463916655" y1="159.39140463916655" x2="127" x1="40" /><line y2="126.60880506090896" y1="126.60880506090896" x2="127" x1="40" /><line y2="93.82620548265137" y1="93.82620548265137" x2="127" x1="40" /><line y2="61.043605904393786" y1="61.043605904393786" x2="127" x1="40" /></g><g transform="translate(99,0)" stroke-opacity="0.1" stroke="currentColor"><line y2="520" y1="520" x2="127" x1="40" /><line y2="487.2174004217424" y1="487.2174004217424" x2="127" x1="40" /><line y2="454.4348008434848" y1="454.4348008434848" x2="127" x1="40" /><line y2="421.65220126522723" y1="421.65220126522723" x2="127" x1="40" /><line y2="388.86960168696965" y1="388.86960168696965" x2="127" x1="40" /><line y2="356.0870021087121" y1="356.0870021087121" x2="127" x1="40" /><line y2="323.3044025304544" y1="323.3044025304544" x2="127" x1="40" /><line y2="290.52180295219694" y1="290.52180295219694" x2="127" x1="40" /><line y2="257.7392033739393" y1="257.7392033739393" x2="127" x1="40" /><line y2="224.95660379568173" y1="224.95660379568173" x2="127" x1="40" /><line y2="192.17400421742417" y1="192.17400421742417" x2="127" x1="40" /><line y2="159.39140463916655" y1="159.39140463916655" x2="127" x1="40" /><line y2="126.60880506090896" y1="126.60880506090896" x2="127" x1="40" /><line y2="93.82620548265137" y1="93.82620548265137" x2="127" x1="40" /><line y2="61.043605904393786" y1="61.043605904393786" x2="127" x1="40" /></g><g transform="translate(196,0)" stroke-opacity="0.1" stroke="currentColor"><line y2="520" y1="520" x2="127" x1="40" /><line y2="487.2174004217424" y1="487.2174004217424" x2="127" x1="40" /><line y2="454.4348008434848" y1="454.4348008434848" x2="127" x1="40" /><line y2="421.65220126522723" y1="421.65220126522723" x2="127" x1="40" /><line y2="388.86960168696965" y1="388.86960168696965" x2="127" x1="40" /><line y2="356.0870021087121" y1="356.0870021087121" x2="127" x1="40" /><line y2="323.3044025304544" y1="323.3044025304544" x2="127" x1="40" /><line y2="290.52180295219694" y1="290.52180295219694" x2="127" x1="40" /><line y2="257.7392033739393" y1="257.7392033739393" x2="127" x1="40" /><line y2="224.95660379568173" y1="224.95660379568173" x2="127" x1="40" /><line y2="192.17400421742417" y1="192.17400421742417" x2="127" x1="40" /><line y2="159.39140463916655" y1="159.39140463916655" x2="127" x1="40" /><line y2="126.60880506090896" y1="126.60880506090896" x2="127" x1="40" /><line y2="93.82620548265137" y1="93.82620548265137" x2="127" x1="40" /><line y2="61.043605904393786" y1="61.043605904393786" x2="127" x1="40" /></g><g transform="translate(293,0)" stroke-opacity="0.1" stroke="currentColor"><line y2="520" y1="520" x2="127" x1="40" /><line y2="487.2174004217424" y1="487.2174004217424" x2="127" x1="40" /><line y2="454.4348008434848" y1="454.4348008434848" x2="127" x1="40" /><line y2="421.65220126522723" y1="421.65220126522723" x2="127" x1="40" /><line y2="388.86960168696965" y1="388.86960168696965" x2="127" x1="40" /><line y2="356.0870021087121" y1="356.0870021087121" x2="127" x1="40" /><line y2="323.3044025304544" y1="323.3044025304544" x2="127" x1="40" /><line y2="290.52180295219694" y1="290.52180295219694" x2="127" x1="40" /><line y2="257.7392033739393" y1="257.7392033739393" x2="127" x1="40" /><line y2="224.95660379568173" y1="224.95660379568173" x2="127" x1="40" /><line y2="192.17400421742417" y1="192.17400421742417" x2="127" x1="40" /><line y2="159.39140463916655" y1="159.39140463916655" x2="127" x1="40" /><line y2="126.60880506090896" y1="126.60880506090896" x2="127" x1="40" /><line y2="93.82620548265137" y1="93.82620548265137" x2="127" x1="40" /><line y2="61.043605904393786" y1="61.043605904393786" x2="127" x1="40" /></g><g transform="translate(390,0)" stroke-opacity="0.1" stroke="currentColor"><line y2="520" y1="520" x2="127" x1="40" /><line y2="487.2174004217424" y1="487.2174004217424" x2="127" x1="40" /><line y2="454.4348008434848" y1="454.4348008434848" x2="127" x1="40" /><line y2="421.65220126522723" y1="421.65220126522723" x2="127" x1="40" /><line y2="388.86960168696965" y1="388.86960168696965" x2="127" x1="40" /><line y2="356.0870021087121" y1="356.0870021087121" x2="127" x1="40" /><line y2="323.3044025304544" y1="323.3044025304544" x2="127" x1="40" /><line y2="290.52180295219694" y1="290.52180295219694" x2="127" x1="40" /><line y2="257.7392033739393" y1="257.7392033739393" x2="127" x1="40" /><line y2="224.95660379568173" y1="224.95660379568173" x2="127" x1="40" /><line y2="192.17400421742417" y1="192.17400421742417" x2="127" x1="40" /><line y2="159.39140463916655" y1="159.39140463916655" x2="127" x1="40" /><line y2="126.60880506090896" y1="126.60880506090896" x2="127" x1="40" /><line y2="93.82620548265137" y1="93.82620548265137" x2="127" x1="40" /><line y2="61.043605904393786" y1="61.043605904393786" x2="127" x1="40" /></g><g transform="translate(487,0)" stroke-opacity="0.1" stroke="currentColor"><line y2="520" y1="520" x2="127" x1="40" /><line y2="487.2174004217424" y1="487.2174004217424" x2="127" x1="40" /><line y2="454.4348008434848" y1="454.4348008434848" x2="127" x1="40" /><line y2="421.65220126522723" y1="421.65220126522723" x2="127" x1="40" /><line y2="388.86960168696965" y1="388.86960168696965" x2="127" x1="40" /><line y2="356.0870021087121" y1="356.0870021087121" x2="127" x1="40" /><line y2="323.3044025304544" y1="323.3044025304544" x2="127" x1="40" /><line y2="290.52180295219694" y1="290.52180295219694" x2="127" x1="40" /><line y2="257.7392033739393" y1="257.7392033739393" x2="127" x1="40" /><line y2="224.95660379568173" y1="224.95660379568173" x2="127" x1="40" /><line y2="192.17400421742417" y1="192.17400421742417" x2="127" x1="40" /><line y2="159.39140463916655" y1="159.39140463916655" x2="127" x1="40" /><line y2="126.60880506090896" y1="126.60880506090896" x2="127" x1="40" /><line y2="93.82620548265137" y1="93.82620548265137" x2="127" x1="40" /><line y2="61.043605904393786" y1="61.043605904393786" x2="127" x1="40" /></g><g transform="translate(584,0)" stroke-opacity="0.1" stroke="currentColor"><line y2="520" y1="520" x2="127" x1="40" /><line y2="487.2174004217424" y1="487.2174004217424" x2="127" x1="40" /><line y2="454.4348008434848" y1="454.4348008434848" x2="127" x1="40" /><line y2="421.65220126522723" y1="421.65220126522723" x2="127" x1="40" /><line y2="388.86960168696965" y1="388.86960168696965" x2="127" x1="40" /><line y2="356.0870021087121" y1="356.0870021087121" x2="127" x1="40" /><line y2="323.3044025304544" y1="323.3044025304544" x2="127" x1="40" /><line y2="290.52180295219694" y1="290.52180295219694" x2="127" x1="40" /><line y2="257.7392033739393" y1="257.7392033739393" x2="127" x1="40" /><line y2="224.95660379568173" y1="224.95660379568173" x2="127" x1="40" /><line y2="192.17400421742417" y1="192.17400421742417" x2="127" x1="40" /><line y2="159.39140463916655" y1="159.39140463916655" x2="127" x1="40" /><line y2="126.60880506090896" y1="126.60880506090896" x2="127" x1="40" /><line y2="93.82620548265137" y1="93.82620548265137" x2="127" x1="40" /><line y2="61.043605904393786" y1="61.043605904393786" x2="127" x1="40" /></g><g transform="translate(681,0)" stroke-opacity="0.1" stroke="currentColor"><line y2="520" y1="520" x2="127" x1="40" /><line y2="487.2174004217424" y1="487.2174004217424" x2="127" x1="40" /><line y2="454.4348008434848" y1="454.4348008434848" x2="127" x1="40" /><line y2="421.65220126522723" y1="421.65220126522723" x2="127" x1="40" /><line y2="388.86960168696965" y1="388.86960168696965" x2="127" x1="40" /><line y2="356.0870021087121" y1="356.0870021087121" x2="127" x1="40" /><line y2="323.3044025304544" y1="323.3044025304544" x2="127" x1="40" /><line y2="290.52180295219694" y1="290.52180295219694" x2="127" x1="40" /><line y2="257.7392033739393" y1="257.7392033739393" x2="127" x1="40" /><line y2="224.95660379568173" y1="224.95660379568173" x2="127" x1="40" /><line y2="192.17400421742417" y1="192.17400421742417" x2="127" x1="40" /><line y2="159.39140463916655" y1="159.39140463916655" x2="127" x1="40" /><line y2="126.60880506090896" y1="126.60880506090896" x2="127" x1="40" /><line y2="93.82620548265137" y1="93.82620548265137" x2="127" x1="40" /><line y2="61.043605904393786" y1="61.043605904393786" x2="127" x1="40" /></g><g transform="translate(778,0)" stroke-opacity="0.1" stroke="currentColor"><line y2="520" y1="520" x2="127" x1="40" /><line y2="487.2174004217424" y1="487.2174004217424" x2="127" x1="40" /><line y2="454.4348008434848" y1="454.4348008434848" x2="127" x1="40" /><line y2="421.65220126522723" y1="421.65220126522723" x2="127" x1="40" /><line y2="388.86960168696965" y1="388.86960168696965" x2="127" x1="40" /><line y2="356.0870021087121" y1="356.0870021087121" x2="127" x1="40" /><line y2="323.3044025304544" y1="323.3044025304544" x2="127" x1="40" /><line y2="290.52180295219694" y1="290.52180295219694" x2="127" x1="40" /><line y2="257.7392033739393" y1="257.7392033739393" x2="127" x1="40" /><line y2="224.95660379568173" y1="224.95660379568173" x2="127" x1="40" /><line y2="192.17400421742417" y1="192.17400421742417" x2="127" x1="40" /><line y2="159.39140463916655" y1="159.39140463916655" x2="127" x1="40" /><line y2="126.60880506090896" y1="126.60880506090896" x2="127" x1="40" /><line y2="93.82620548265137" y1="93.82620548265137" x2="127" x1="40" /><line y2="61.043605904393786" y1="61.043605904393786" x2="127" x1="40" /></g><g transform="translate(875,0)" stroke-opacity="0.1" stroke="currentColor"><line y2="520" y1="520" x2="127" x1="40" /><line y2="487.2174004217424" y1="487.2174004217424" x2="127" x1="40" /><line y2="454.4348008434848" y1="454.4348008434848" x2="127" x1="40" /><line y2="421.65220126522723" y1="421.65220126522723" x2="127" x1="40" /><line y2="388.86960168696965" y1="388.86960168696965" x2="127" x1="40" /><line y2="356.0870021087121" y1="356.0870021087121" x2="127" x1="40" /><line y2="323.3044025304544" y1="323.3044025304544" x2="127" x1="40" /><line y2="290.52180295219694" y1="290.52180295219694" x2="127" x1="40" /><line y2="257.7392033739393" y1="257.7392033739393" x2="127" x1="40" /><line y2="224.95660379568173" y1="224.95660379568173" x2="127" x1="40" /><line y2="192.17400421742417" y1="192.17400421742417" x2="127" x1="40" /><line y2="159.39140463916655" y1="159.39140463916655" x2="127" x1="40" /><line y2="126.60880506090896" y1="126.60880506090896" x2="127" x1="40" /><line y2="93.82620548265137" y1="93.82620548265137" x2="127" x1="40" /><line y2="61.043605904393786" y1="61.043605904393786" x2="127" x1="40" /></g><g transform="translate(972,0)" stroke-opacity="0.1" stroke="currentColor"><line y2="520" y1="520" x2="127" x1="40" /><line y2="487.2174004217424" y1="487.2174004217424" x2="127" x1="40" /><line y2="454.4348008434848" y1="454.4348008434848" x2="127" x1="40" /><line y2="421.65220126522723" y1="421.65220126522723" x2="127" x1="40" /><line y2="388.86960168696965" y1="388.86960168696965" x2="127" x1="40" /><line y2="356.0870021087121" y1="356.0870021087121" x2="127" x1="40" /><line y2="323.3044025304544" y1="323.3044025304544" x2="127" x1="40" /><line y2="290.52180295219694" y1="290.52180295219694" x2="127" x1="40" /><line y2="257.7392033739393" y1="257.7392033739393" x2="127" x1="40" /><line y2="224.95660379568173" y1="224.95660379568173" x2="127" x1="40" /><line y2="192.17400421742417" y1="192.17400421742417" x2="127" x1="40" /><line y2="159.39140463916655" y1="159.39140463916655" x2="127" x1="40" /><line y2="126.60880506090896" y1="126.60880506090896" x2="127" x1="40" /><line y2="93.82620548265137" y1="93.82620548265137" x2="127" x1="40" /><line y2="61.043605904393786" y1="61.043605904393786" x2="127" x1="40" /></g><g transform="translate(1069,0)" stroke-opacity="0.1" stroke="currentColor"><line y2="520" y1="520" x2="127" x1="40" /><line y2="487.2174004217424" y1="487.2174004217424" x2="127" x1="40" /><line y2="454.4348008434848" y1="454.4348008434848" x2="127" x1="40" /><line y2="421.65220126522723" y1="421.65220126522723" x2="127" x1="40" /><line y2="388.86960168696965" y1="388.86960168696965" x2="127" x1="40" /><line y2="356.0870021087121" y1="356.0870021087121" x2="127" x1="40" /><line y2="323.3044025304544" y1="323.3044025304544" x2="127" x1="40" /><line y2="290.52180295219694" y1="290.52180295219694" x2="127" x1="40" /><line y2="257.7392033739393" y1="257.7392033739393" x2="127" x1="40" /><line y2="224.95660379568173" y1="224.95660379568173" x2="127" x1="40" /><line y2="192.17400421742417" y1="192.17400421742417" x2="127" x1="40" /><line y2="159.39140463916655" y1="159.39140463916655" x2="127" x1="40" /><line y2="126.60880506090896" y1="126.60880506090896" x2="127" x1="40" /><line y2="93.82620548265137" y1="93.82620548265137" x2="127" x1="40" /><line y2="61.043605904393786" y1="61.043605904393786" x2="127" x1="40" /></g><g transform="translate(1166,0)" stroke-opacity="0.1" stroke="currentColor"><line y2="520" y1="520" x2="127" x1="40" /><line y2="487.2174004217424" y1="487.2174004217424" x2="127" x1="40" /><line y2="454.4348008434848" y1="454.4348008434848" x2="127" x1="40" /><line y2="421.65220126522723" y1="421.65220126522723" x2="127" x1="40" /><line y2="388.86960168696965" y1="388.86960168696965" x2="127" x1="40" /><line y2="356.0870021087121" y1="356.0870021087121" x2="127" x1="40" /><line y2="323.3044025304544" y1="323.3044025304544" x2="127" x1="40" /><line y2="290.52180295219694" y1="290.52180295219694" x2="127" x1="40" /><line y2="257.7392033739393" y1="257.7392033739393" x2="127" x1="40" /><line y2="224.95660379568173" y1="224.95660379568173" x2="127" x1="40" /><line y2="192.17400421742417" y1="192.17400421742417" x2="127" x1="40" /><line y2="159.39140463916655" y1="159.39140463916655" x2="127" x1="40" /><line y2="126.60880506090896" y1="126.60880506090896" x2="127" x1="40" /><line y2="93.82620548265137" y1="93.82620548265137" x2="127" x1="40" /><line y2="61.043605904393786" y1="61.043605904393786" x2="127" x1="40" /></g><g transform="translate(1263,0)" stroke-opacity="0.1" stroke="currentColor"><line y2="520" y1="520" x2="127" x1="40" /><line y2="487.2174004217424" y1="487.2174004217424" x2="127" x1="40" /><line y2="454.4348008434848" y1="454.4348008434848" x2="127" x1="40" /><line y2="421.65220126522723" y1="421.65220126522723" x2="127" x1="40" /><line y2="388.86960168696965" y1="388.86960168696965" x2="127" x1="40" /><line y2="356.0870021087121" y1="356.0870021087121" x2="127" x1="40" /><line y2="323.3044025304544" y1="323.3044025304544" x2="127" x1="40" /><line y2="290.52180295219694" y1="290.52180295219694" x2="127" x1="40" /><line y2="257.7392033739393" y1="257.7392033739393" x2="127" x1="40" /><line y2="224.95660379568173" y1="224.95660379568173" x2="127" x1="40" /><line y2="192.17400421742417" y1="192.17400421742417" x2="127" x1="40" /><line y2="159.39140463916655" y1="159.39140463916655" x2="127" x1="40" /><line y2="126.60880506090896" y1="126.60880506090896" x2="127" x1="40" /><line y2="93.82620548265137" y1="93.82620548265137" x2="127" x1="40" /><line y2="61.043605904393786" y1="61.043605904393786" x2="127" x1="40" /></g><g transform="translate(1360,0)" stroke-opacity="0.1" stroke="currentColor"><line y2="520" y1="520" x2="127" x1="40" /><line y2="487.2174004217424" y1="487.2174004217424" x2="127" x1="40" /><line y2="454.4348008434848" y1="454.4348008434848" x2="127" x1="40" /><line y2="421.65220126522723" y1="421.65220126522723" x2="127" x1="40" /><line y2="388.86960168696965" y1="388.86960168696965" x2="127" x1="40" /><line y2="356.0870021087121" y1="356.0870021087121" x2="127" x1="40" /><line y2="323.3044025304544" y1="323.3044025304544" x2="127" x1="40" /><line y2="290.52180295219694" y1="290.52180295219694" x2="127" x1="40" /><line y2="257.7392033739393" y1="257.7392033739393" x2="127" x1="40" /><line y2="224.95660379568173" y1="224.95660379568173" x2="127" x1="40" /><line y2="192.17400421742417" y1="192.17400421742417" x2="127" x1="40" /><line y2="159.39140463916655" y1="159.39140463916655" x2="127" x1="40" /><line y2="126.60880506090896" y1="126.60880506090896" x2="127" x1="40" /><line y2="93.82620548265137" y1="93.82620548265137" x2="127" x1="40" /><line y2="61.043605904393786" y1="61.043605904393786" x2="127" x1="40" /></g><g transform="translate(1457,0)" stroke-opacity="0.1" stroke="currentColor"><line y2="520" y1="520" x2="127" x1="40" /><line y2="487.2174004217424" y1="487.2174004217424" x2="127" x1="40" /><line y2="454.4348008434848" y1="454.4348008434848" x2="127" x1="40" /><line y2="421.65220126522723" y1="421.65220126522723" x2="127" x1="40" /><line y2="388.86960168696965" y1="388.86960168696965" x2="127" x1="40" /><line y2="356.0870021087121" y1="356.0870021087121" x2="127" x1="40" /><line y2="323.3044025304544" y1="323.3044025304544" x2="127" x1="40" /><line y2="290.52180295219694" y1="290.52180295219694" x2="127" x1="40" /><line y2="257.7392033739393" y1="257.7392033739393" x2="127" x1="40" /><line y2="224.95660379568173" y1="224.95660379568173" x2="127" x1="40" /><line y2="192.17400421742417" y1="192.17400421742417" x2="127" x1="40" /><line y2="159.39140463916655" y1="159.39140463916655" x2="127" x1="40" /><line y2="126.60880506090896" y1="126.60880506090896" x2="127" x1="40" /><line y2="93.82620548265137" y1="93.82620548265137" x2="127" x1="40" /><line y2="61.043605904393786" y1="61.043605904393786" x2="127" x1="40" /></g><g transform="translate(1554,0)" stroke-opacity="0.1" stroke="currentColor"><line y2="520" y1="520" x2="127" x1="40" /><line y2="487.2174004217424" y1="487.2174004217424" x2="127" x1="40" /><line y2="454.4348008434848" y1="454.4348008434848" x2="127" x1="40" /><line y2="421.65220126522723" y1="421.65220126522723" x2="127" x1="40" /><line y2="388.86960168696965" y1="388.86960168696965" x2="127" x1="40" /><line y2="356.0870021087121" y1="356.0870021087121" x2="127" x1="40" /><line y2="323.3044025304544" y1="323.3044025304544" x2="127" x1="40" /><line y2="290.52180295219694" y1="290.52180295219694" x2="127" x1="40" /><line y2="257.7392033739393" y1="257.7392033739393" x2="127" x1="40" /><line y2="224.95660379568173" y1="224.95660379568173" x2="127" x1="40" /><line y2="192.17400421742417" y1="192.17400421742417" x2="127" x1="40" /><line y2="159.39140463916655" y1="159.39140463916655" x2="127" x1="40" /><line y2="126.60880506090896" y1="126.60880506090896" x2="127" x1="40" /><line y2="93.82620548265137" y1="93.82620548265137" x2="127" x1="40" /><line y2="61.043605904393786" y1="61.043605904393786" x2="127" x1="40" /></g><g transform="translate(1651,0)" stroke-opacity="0.1" stroke="currentColor"><line y2="520" y1="520" x2="127" x1="40" /><line y2="487.2174004217424" y1="487.2174004217424" x2="127" x1="40" /><line y2="454.4348008434848" y1="454.4348008434848" x2="127" x1="40" /><line y2="421.65220126522723" y1="421.65220126522723" x2="127" x1="40" /><line y2="388.86960168696965" y1="388.86960168696965" x2="127" x1="40" /><line y2="356.0870021087121" y1="356.0870021087121" x2="127" x1="40" /><line y2="323.3044025304544" y1="323.3044025304544" x2="127" x1="40" /><line y2="290.52180295219694" y1="290.52180295219694" x2="127" x1="40" /><line y2="257.7392033739393" y1="257.7392033739393" x2="127" x1="40" /><line y2="224.95660379568173" y1="224.95660379568173" x2="127" x1="40" /><line y2="192.17400421742417" y1="192.17400421742417" x2="127" x1="40" /><line y2="159.39140463916655" y1="159.39140463916655" x2="127" x1="40" /><line y2="126.60880506090896" y1="126.60880506090896" x2="127" x1="40" /><line y2="93.82620548265137" y1="93.82620548265137" x2="127" x1="40" /><line y2="61.043605904393786" y1="61.043605904393786" x2="127" x1="40" /></g></g><g aria-hidden="true" aria-label="y-axis tick"><g transform="translate(2,0)" stroke="currentColor" fill="none"><path d="M0,0L-6,0" transform="translate(40,520)" /><path d="M0,0L-6,0" transform="translate(40,487.2174004217424)" /><path d="M0,0L-6,0" transform="translate(40,454.4348008434848)" /><path d="M0,0L-6,0" transform="translate(40,421.65220126522723)" /><path d="M0,0L-6,0" transform="translate(40,388.86960168696965)" /><path d="M0,0L-6,0" transform="translate(40,356.0870021087121)" /><path d="M0,0L-6,0" transform="translate(40,323.3044025304544)" /><path d="M0,0L-6,0" transform="translate(40,290.52180295219694)" /><path d="M0,0L-6,0" transform="translate(40,257.7392033739393)" /><path d="M0,0L-6,0" transform="translate(40,224.95660379568173)" /><path d="M0,0L-6,0" transform="translate(40,192.17400421742417)" /><path d="M0,0L-6,0" transform="translate(40,159.39140463916655)" /><path d="M0,0L-6,0" transform="translate(40,126.60880506090896)" /><path d="M0,0L-6,0" transform="translate(40,93.82620548265137)" /><path d="M0,0L-6,0" transform="translate(40,61.043605904393786)" /></g></g><g transform="translate(-9,0)" aria-label="y-axis tick label"><g transform="translate(2,0)" font-variant="tabular-nums" text-anchor="end"><text transform="translate(40,520)" y="0.32em">0</text><text transform="translate(40,487.2174004217424)" y="0.32em">20</text><text transform="translate(40,454.4348008434848)" y="0.32em">40</text><text transform="translate(40,421.65220126522723)" y="0.32em">60</text><text transform="translate(40,388.86960168696965)" y="0.32em">80</text><text transform="translate(40,356.0870021087121)" y="0.32em">100</text><text transform="translate(40,323.3044025304544)" y="0.32em">120</text><text transform="translate(40,290.52180295219694)" y="0.32em">140</text><text transform="translate(40,257.7392033739393)" y="0.32em">160</text><text transform="translate(40,224.95660379568173)" y="0.32em">180</text><text transform="translate(40,192.17400421742417)" y="0.32em">200</text><text transform="translate(40,159.39140463916655)" y="0.32em">220</text><text transform="translate(40,126.60880506090896)" y="0.32em">240</text><text transform="translate(40,93.82620548265137)" y="0.32em">260</text><text transform="translate(40,61.043605904393786)" y="0.32em">280</text></g></g><g transform="translate(-37,-47)" text-anchor="start" aria-label="y-axis label"><text transform="translate(42,50)" y="0.71em">↑ Seconds (ns)</text></g><g transform="translate(18.5,0)" aria-hidden="true" aria-label="x-axis tick"><g transform="translate(2,0)" stroke="currentColor" fill="none"><path d="M0,0L0,6" transform="translate(45,520)" /><path d="M0,0L0,6" transform="translate(86,520)" /></g><g transform="translate(99,0)" stroke="currentColor" fill="none"><path d="M0,0L0,6" transform="translate(45,520)" /><path d="M0,0L0,6" transform="translate(86,520)" /></g><g transform="translate(196,0)" stroke="currentColor" fill="none"><path d="M0,0L0,6" transform="translate(45,520)" /><path d="M0,0L0,6" transform="translate(86,520)" /></g><g transform="translate(293,0)" stroke="currentColor" fill="none"><path d="M0,0L0,6" transform="translate(45,520)" /><path d="M0,0L0,6" transform="translate(86,520)" /></g><g transform="translate(390,0)" stroke="currentColor" fill="none"><path d="M0,0L0,6" transform="translate(45,520)" /><path d="M0,0L0,6" transform="translate(86,520)" /></g><g transform="translate(487,0)" stroke="currentColor" fill="none"><path d="M0,0L0,6" transform="translate(45,520)" /><path d="M0,0L0,6" transform="translate(86,520)" /></g><g transform="translate(584,0)" stroke="currentColor" fill="none"><path d="M0,0L0,6" transform="translate(45,520)" /><path d="M0,0L0,6" transform="translate(86,520)" /></g><g transform="translate(681,0)" stroke="currentColor" fill="none"><path d="M0,0L0,6" transform="translate(45,520)" /><path d="M0,0L0,6" transform="translate(86,520)" /></g><g transform="translate(778,0)" stroke="currentColor" fill="none"><path d="M0,0L0,6" transform="translate(45,520)" /><path d="M0,0L0,6" transform="translate(86,520)" /></g><g transform="translate(875,0)" stroke="currentColor" fill="none"><path d="M0,0L0,6" transform="translate(45,520)" /><path d="M0,0L0,6" transform="translate(86,520)" /></g><g transform="translate(972,0)" stroke="currentColor" fill="none"><path d="M0,0L0,6" transform="translate(45,520)" /><path d="M0,0L0,6" transform="translate(86,520)" /></g><g transform="translate(1069,0)" stroke="currentColor" fill="none"><path d="M0,0L0,6" transform="translate(45,520)" /><path d="M0,0L0,6" transform="translate(86,520)" /></g><g transform="translate(1166,0)" stroke="currentColor" fill="none"><path d="M0,0L0,6" transform="translate(45,520)" /><path d="M0,0L0,6" transform="translate(86,520)" /></g><g transform="translate(1263,0)" stroke="currentColor" fill="none"><path d="M0,0L0,6" transform="translate(45,520)" /><path d="M0,0L0,6" transform="translate(86,520)" /></g><g transform="translate(1360,0)" stroke="currentColor" fill="none"><path d="M0,0L0,6" transform="translate(45,520)" /><path d="M0,0L0,6" transform="translate(86,520)" /></g><g transform="translate(1457,0)" stroke="currentColor" fill="none"><path d="M0,0L0,6" transform="translate(45,520)" /><path d="M0,0L0,6" transform="translate(86,520)" /></g><g transform="translate(1554,0)" stroke="currentColor" fill="none"><path d="M0,0L0,6" transform="translate(45,520)" /><path d="M0,0L0,6" transform="translate(86,520)" /></g><g transform="translate(1651,0)" stroke="currentColor" fill="none"><path d="M0,0L0,6" transform="translate(45,520)" /><path d="M0,0L0,6" transform="translate(86,520)" /></g></g><g transform="translate(18.5,11.82842712474619)" aria-label="x-axis tick label"><g transform="translate(2,0)" text-anchor="end"><text transform="translate(45,520) rotate(-45)" y="0.32em">median</text><text transform="translate(86,520) rotate(-45)" y="0.32em">mean</text></g><g transform="translate(99,0)" text-anchor="end"><text transform="translate(45,520) rotate(-45)" y="0.32em">median</text><text transform="translate(86,520) rotate(-45)" y="0.32em">mean</text></g><g transform="translate(196,0)" text-anchor="end"><text transform="translate(45,520) rotate(-45)" y="0.32em">median</text><text transform="translate(86,520) rotate(-45)" y="0.32em">mean</text></g><g transform="translate(293,0)" text-anchor="end"><text transform="translate(45,520) rotate(-45)" y="0.32em">median</text><text transform="translate(86,520) rotate(-45)" y="0.32em">mean</text></g><g transform="translate(390,0)" text-anchor="end"><text transform="translate(45,520) rotate(-45)" y="0.32em">median</text><text transform="translate(86,520) rotate(-45)" y="0.32em">mean</text></g><g transform="translate(487,0)" text-anchor="end"><text transform="translate(45,520) rotate(-45)" y="0.32em">median</text><text transform="translate(86,520) rotate(-45)" y="0.32em">mean</text></g><g transform="translate(584,0)" text-anchor="end"><text transform="translate(45,520) rotate(-45)" y="0.32em">median</text><text transform="translate(86,520) rotate(-45)" y="0.32em">mean</text></g><g transform="translate(681,0)" text-anchor="end"><text transform="translate(45,520) rotate(-45)" y="0.32em">median</text><text transform="translate(86,520) rotate(-45)" y="0.32em">mean</text></g><g transform="translate(778,0)" text-anchor="end"><text transform="translate(45,520) rotate(-45)" y="0.32em">median</text><text transform="translate(86,520) rotate(-45)" y="0.32em">mean</text></g><g transform="translate(875,0)" text-anchor="end"><text transform="translate(45,520) rotate(-45)" y="0.32em">median</text><text transform="translate(86,520) rotate(-45)" y="0.32em">mean</text></g><g transform="translate(972,0)" text-anchor="end"><text transform="translate(45,520) rotate(-45)" y="0.32em">median</text><text transform="translate(86,520) rotate(-45)" y="0.32em">mean</text></g><g transform="translate(1069,0)" text-anchor="end"><text transform="translate(45,520) rotate(-45)" y="0.32em">median</text><text transform="translate(86,520) rotate(-45)" y="0.32em">mean</text></g><g transform="translate(1166,0)" text-anchor="end"><text transform="translate(45,520) rotate(-45)" y="0.32em">median</text><text transform="translate(86,520) rotate(-45)" y="0.32em">mean</text></g><g transform="translate(1263,0)" text-anchor="end"><text transform="translate(45,520) rotate(-45)" y="0.32em">median</text><text transform="translate(86,520) rotate(-45)" y="0.32em">mean</text></g><g transform="translate(1360,0)" text-anchor="end"><text transform="translate(45,520) rotate(-45)" y="0.32em">median</text><text transform="translate(86,520) rotate(-45)" y="0.32em">mean</text></g><g transform="translate(1457,0)" text-anchor="end"><text transform="translate(45,520) rotate(-45)" y="0.32em">median</text><text transform="translate(86,520) rotate(-45)" y="0.32em">mean</text></g><g transform="translate(1554,0)" text-anchor="end"><text transform="translate(45,520) rotate(-45)" y="0.32em">median</text><text transform="translate(86,520) rotate(-45)" y="0.32em">mean</text></g><g transform="translate(1651,0)" text-anchor="end"><text transform="translate(45,520) rotate(-45)" y="0.32em">median</text><text transform="translate(86,520) rotate(-45)" y="0.32em">mean</text></g></g><g transform="translate(0,77)" aria-label="x-axis label"><text transform="translate(910,520)">aggregate_name</text></g><g aria-label="bar"><g transform="translate(2,0)"><rect fill="#efb118" height="439.0682304706573" y="80.93176952934272" width="37" x="86" /><rect fill="#efb118" height="439.0682304706573" y="80.93176952934272" width="37" x="45" /><rect fill="#4269d0" height="228.2242932560281" y="291.7757067439719" width="37" x="86" /><rect fill="#4269d0" height="228.2242932560281" y="291.7757067439719" width="37" x="45" /></g><g transform="translate(99,0)"><rect fill="#efb118" height="469.7893899448042" y="50.21061005519581" width="37" x="86" /><rect fill="#efb118" height="469.7893899448042" y="50.21061005519581" width="37" x="45" /><rect fill="#4269d0" height="235.61999706725504" y="284.38000293274496" width="37" x="86" /><rect fill="#4269d0" height="235.61999706725504" y="284.38000293274496" width="37" x="45" /></g><g transform="translate(196,0)"><rect fill="#efb118" height="444.52128990536977" y="75.47871009463022" width="37" x="86" /><rect fill="#efb118" height="444.52128990536977" y="75.47871009463022" width="37" x="45" /><rect fill="#4269d0" height="223.77199994210508" y="296.2280000578949" width="37" x="86" /><rect fill="#4269d0" height="223.77199994210508" y="296.2280000578949" width="37" x="45" /></g><g transform="translate(293,0)"><rect fill="#efb118" height="445.1270550880839" y="74.87294491191605" width="37" x="86" /><rect fill="#efb118" height="445.1270550880839" y="74.87294491191605" width="37" x="45" /><rect fill="#4269d0" height="239.1817814403335" y="280.8182185596665" width="37" x="86" /><rect fill="#4269d0" height="239.1817814403335" y="280.8182185596665" width="37" x="45" /></g><g transform="translate(390,0)"><rect fill="#efb118" height="452.82588752150417" y="67.17411247849583" width="37" x="86" /><rect fill="#efb118" height="452.82588752150417" y="67.17411247849583" width="37" x="45" /><rect fill="#4269d0" height="206.8527737161795" y="313.1472262838205" width="37" x="86" /><rect fill="#4269d0" height="206.8527737161795" y="313.1472262838205" width="37" x="45" /></g><g transform="translate(487,0)"><rect fill="#efb118" height="450.34859750082524" y="69.65140249917478" width="37" x="86" /><rect fill="#efb118" height="450.34859750082524" y="69.65140249917478" width="37" x="45" /><rect fill="#4269d0" height="225.97219323381648" y="294.0278067661835" width="37" x="86" /><rect fill="#4269d0" height="225.97219323381648" y="294.0278067661835" width="37" x="45" /></g><g transform="translate(584,0)"><rect fill="#efb118" height="448.4950731499029" y="71.50492685009708" width="37" x="86" /><rect fill="#efb118" height="448.4950731499029" y="71.50492685009708" width="37" x="45" /><rect fill="#4269d0" height="208.3447706119963" y="311.6552293880037" width="37" x="86" /><rect fill="#4269d0" height="208.3447706119963" y="311.6552293880037" width="37" x="45" /></g><g transform="translate(681,0)"><rect fill="#efb118" height="454.7072999804665" y="65.29270001953356" width="37" x="86" /><rect fill="#efb118" height="454.7072999804665" y="65.29270001953356" width="37" x="45" /><rect fill="#4269d0" height="218.79026288499847" y="301.20973711500153" width="37" x="86" /><rect fill="#4269d0" height="218.79026288499847" y="301.20973711500153" width="37" x="45" /></g><g transform="translate(778,0)"><rect fill="#efb118" height="468.5606397408246" y="51.43936025917538" width="37" x="86" /><rect fill="#efb118" height="468.5606397408246" y="51.43936025917538" width="37" x="45" /><rect fill="#4269d0" height="223.60899333815843" y="296.3910066618416" width="37" x="86" /><rect fill="#4269d0" height="223.60899333815843" y="296.3910066618416" width="37" x="45" /></g><g transform="translate(875,0)"><rect fill="#efb118" height="469.513792674479" y="50.486207325520965" width="37" x="86" /><rect fill="#efb118" height="469.513792674479" y="50.486207325520965" width="37" x="45" /><rect fill="#4269d0" height="243.44694614255428" y="276.5530538574457" width="37" x="86" /><rect fill="#4269d0" height="243.44694614255428" y="276.5530538574457" width="37" x="45" /></g><g transform="translate(972,0)"><rect fill="#efb118" height="445.7309280449482" y="74.26907195505177" width="37" x="86" /><rect fill="#efb118" height="445.7309280449482" y="74.26907195505177" width="37" x="45" /><rect fill="#4269d0" height="219.72449145611444" y="300.27550854388556" width="37" x="86" /><rect fill="#4269d0" height="219.72449145611444" y="300.27550854388556" width="37" x="45" /></g><g transform="translate(1069,0)"><rect fill="#efb118" height="451.5939175629318" y="68.40608243706819" width="37" x="86" /><rect fill="#efb118" height="451.5939175629318" y="68.40608243706819" width="37" x="45" /><rect fill="#4269d0" height="215.19044101533933" y="304.80955898466067" width="37" x="86" /><rect fill="#4269d0" height="215.19044101533933" y="304.80955898466067" width="37" x="45" /></g><g transform="translate(1166,0)"><rect fill="#efb118" height="448.54547366552316" y="71.45452633447684" width="37" x="86" /><rect fill="#efb118" height="448.54547366552316" y="71.45452633447684" width="37" x="45" /><rect fill="#4269d0" height="223.43768414425767" y="296.5623158557423" width="37" x="86" /><rect fill="#4269d0" height="223.43768414425767" y="296.5623158557423" width="37" x="45" /></g><g transform="translate(1263,0)"><rect fill="#efb118" height="462.9305927314746" y="57.06940726852542" width="37" x="86" /><rect fill="#efb118" height="462.9305927314746" y="57.06940726852542" width="37" x="45" /><rect fill="#4269d0" height="213.0963774580244" y="306.9036225419756" width="37" x="86" /><rect fill="#4269d0" height="213.0963774580244" y="306.9036225419756" width="37" x="45" /></g><g transform="translate(1360,0)"><rect fill="#efb118" height="424.0574944887445" y="95.94250551125546" width="37" x="86" /><rect fill="#efb118" height="424.0574944887445" y="95.94250551125546" width="37" x="45" /><rect fill="#4269d0" height="206.19596115549888" y="313.8040388445011" width="37" x="86" /><rect fill="#4269d0" height="206.19596115549888" y="313.8040388445011" width="37" x="45" /></g><g transform="translate(1457,0)"><rect fill="#efb118" height="441.17997174433674" y="78.82002825566329" width="37" x="86" /><rect fill="#efb118" height="441.17997174433674" y="78.82002825566329" width="37" x="45" /><rect fill="#4269d0" height="195.7273827437487" y="324.2726172562513" width="37" x="86" /><rect fill="#4269d0" height="195.7273827437487" y="324.2726172562513" width="37" x="45" /></g><g transform="translate(1554,0)"><rect fill="#efb118" height="431.5236652772346" y="88.47633472276539" width="37" x="86" /><rect fill="#efb118" height="431.5236652772346" y="88.47633472276539" width="37" x="45" /><rect fill="#4269d0" height="220.43460816525493" y="299.56539183474507" width="37" x="86" /><rect fill="#4269d0" height="220.43460816525493" y="299.56539183474507" width="37" x="45" /></g><g transform="translate(1651,0)"><rect fill="#efb118" height="444.1831339327675" y="75.81686606723251" width="37" x="86" /><rect fill="#efb118" height="444.1831339327675" y="75.81686606723251" width="37" x="45" /><rect fill="#4269d0" height="223.60760833150675" y="296.39239166849325" width="37" x="86" /><rect fill="#4269d0" height="223.60760833150675" y="296.39239166849325" width="37" x="45" /></g></g><g aria-label="rect"><g transform="translate(2,0)" stroke="black" fill-opacity="0.5"><rect fill="#ff725c" height="0.9898821544293241" width="37" y="291.28076566675725" x="86" /><rect fill="#ff725c" height="5.455776315569082" width="37" y="78.20388137155821" x="86" /></g><g transform="translate(99,0)" stroke="black" fill-opacity="0.5"><rect fill="#ff725c" height="1.5094200152497024" width="37" y="283.62529292512016" x="86" /><rect fill="#ff725c" height="0.41645057577741085" width="37" y="50.00238476730712" x="86" /></g><g transform="translate(196,0)" stroke="black" fill-opacity="0.5"><rect fill="#ff725c" height="3.0022544459544065" width="37" y="294.7268728349177" x="86" /><rect fill="#ff725c" height="11.52409108436757" width="37" y="69.7166645524464" x="86" /></g><g transform="translate(293,0)" stroke="black" fill-opacity="0.5"><rect fill="#ff725c" height="3.431874424125567" width="37" y="279.1022813476037" x="86" /><rect fill="#ff725c" height="0.7203529408050571" width="37" y="74.5127684415135" x="86" /></g><g transform="translate(390,0)" stroke="black" fill-opacity="0.5"><rect fill="#ff725c" height="2.8771601225911354" width="37" y="311.7086462225249" x="86" /><rect fill="#ff725c" height="7.55915563029145" width="37" y="63.39453466335009" x="86" /></g><g transform="translate(487,0)" stroke="black" fill-opacity="0.5"><rect fill="#ff725c" height="1.4444581856957939" width="37" y="293.3055776733356" x="86" /><rect fill="#ff725c" height="11.592270018685511" width="37" y="63.855267489832" x="86" /></g><g transform="translate(584,0)" stroke="black" fill-opacity="0.5"><rect fill="#ff725c" height="0.3587870063630021" width="37" y="311.4758358848222" x="86" /><rect fill="#ff725c" height="3.574590578258608" width="37" y="69.71763156096779" x="86" /></g><g transform="translate(681,0)" stroke="black" fill-opacity="0.5"><rect fill="#ff725c" height="0.12602345768607393" width="37" y="301.1467253861585" x="86" /><rect fill="#ff725c" height="6.388252468815523" width="37" y="62.098573785125794" x="86" /></g><g transform="translate(778,0)" stroke="black" fill-opacity="0.5"><rect fill="#ff725c" height="0.9167424284804611" width="37" y="295.93263544760134" x="86" /><rect fill="#ff725c" height="2.2250283790490855" width="37" y="50.326846069650834" x="86" /></g><g transform="translate(875,0)" stroke="black" fill-opacity="0.5"><rect fill="#ff725c" height="0.23396048866362662" width="37" y="276.43607361311393" x="86" /><rect fill="#ff725c" height="0.9724146510419303" width="37" y="50" x="86" /></g><g transform="translate(972,0)" stroke="black" fill-opacity="0.5"><rect fill="#ff725c" height="0.7267670264787398" width="37" y="299.9121250306462" x="86" /><rect fill="#ff725c" height="4.860627034086505" width="37" y="71.83875843800851" x="86" /></g><g transform="translate(1069,0)" stroke="black" fill-opacity="0.5"><rect fill="#ff725c" height="2.5327985849784227" width="37" y="303.54315969217134" x="86" /><rect fill="#ff725c" height="1.2621705205044833" width="37" y="67.77499717681593" x="86" /></g><g transform="translate(1166,0)" stroke="black" fill-opacity="0.5"><rect fill="#ff725c" height="1.106072885957417" width="37" y="296.0092794127636" x="86" /><rect fill="#ff725c" height="8.52435827058487" width="37" y="67.19234719918444" x="86" /></g><g transform="translate(1263,0)" stroke="black" fill-opacity="0.5"><rect fill="#ff725c" height="0.34146042449918923" width="37" y="306.732892329726" x="86" /><rect fill="#ff725c" height="1.2496050231044364" width="37" y="56.44460475697323" x="86" /></g><g transform="translate(1360,0)" stroke="black" fill-opacity="0.5"><rect fill="#ff725c" height="0.7205540444486473" width="37" y="313.4437618222768" x="86" /><rect fill="#ff725c" height="1.3733606347540785" width="37" y="95.25582519387842" x="86" /></g><g transform="translate(1457,0)" stroke="black" fill-opacity="0.5"><rect fill="#ff725c" height="3.082088478477374" width="37" y="322.7315730170126" x="86" /><rect fill="#ff725c" height="10.235942246445134" width="37" y="73.7020571324407" x="86" /></g><g transform="translate(1554,0)" stroke="black" fill-opacity="0.5"><rect fill="#ff725c" height="0.29268115654622306" width="37" y="299.419051256472" x="86" /><rect fill="#ff725c" height="12.560873547092044" width="37" y="82.19589794921933" x="86" /></g><g transform="translate(1651,0)" stroke="black" fill-opacity="0.5"><rect fill="#ff725c" height="1.4560297483660065" width="37" y="295.6643767943102" x="86" /><rect fill="#ff725c" height="2.654627737048301" width="37" y="74.48955219870837" x="86" /></g></g><g transform="translate(18.5,-8)" aria-label="text"><g transform="translate(2,0)" font-variant="tabular-nums" font-size="10" fill="black"><text transform="translate(86,291.28076566675725)" y="0.32em">0.302</text><text transform="translate(86,78.20388137155821)" y="0.32em">1.664</text></g><g transform="translate(99,0)" font-variant="tabular-nums" font-size="10" fill="black"><text transform="translate(86,283.62529292512016)" y="0.32em">0.46</text><text transform="translate(86,50.00238476730712)" y="0.32em">0.127</text></g><g transform="translate(196,0)" font-variant="tabular-nums" font-size="10" fill="black"><text transform="translate(86,294.7268728349177)" y="0.32em">0.916</text><text transform="translate(86,69.7166645524464)" y="0.32em">3.515</text></g><g transform="translate(293,0)" font-variant="tabular-nums" font-size="10" fill="black"><text transform="translate(86,279.1022813476037)" y="0.32em">1.047</text><text transform="translate(86,74.5127684415135)" y="0.32em">0.22</text></g><g transform="translate(390,0)" font-variant="tabular-nums" font-size="10" fill="black"><text transform="translate(86,311.7086462225249)" y="0.32em">0.878</text><text transform="translate(86,63.39453466335009)" y="0.32em">2.306</text></g><g transform="translate(487,0)" font-variant="tabular-nums" font-size="10" fill="black"><text transform="translate(86,293.3055776733356)" y="0.32em">0.441</text><text transform="translate(86,63.855267489832)" y="0.32em">3.536</text></g><g transform="translate(584,0)" font-variant="tabular-nums" font-size="10" fill="black"><text transform="translate(86,311.4758358848222)" y="0.32em">0.109</text><text transform="translate(86,69.71763156096779)" y="0.32em">1.09</text></g><g transform="translate(681,0)" font-variant="tabular-nums" font-size="10" fill="black"><text transform="translate(86,301.1467253861585)" y="0.32em">0.038</text><text transform="translate(86,62.098573785125794)" y="0.32em">1.949</text></g><g transform="translate(778,0)" font-variant="tabular-nums" font-size="10" fill="black"><text transform="translate(86,295.93263544760134)" y="0.32em">0.28</text><text transform="translate(86,50.326846069650834)" y="0.32em">0.679</text></g><g transform="translate(875,0)" font-variant="tabular-nums" font-size="10" fill="black"><text transform="translate(86,276.43607361311393)" y="0.32em">0.071</text><text transform="translate(86,50)" y="0.32em">0.297</text></g><g transform="translate(972,0)" font-variant="tabular-nums" font-size="10" fill="black"><text transform="translate(86,299.9121250306462)" y="0.32em">0.222</text><text transform="translate(86,71.83875843800851)" y="0.32em">1.483</text></g><g transform="translate(1069,0)" font-variant="tabular-nums" font-size="10" fill="black"><text transform="translate(86,303.54315969217134)" y="0.32em">0.773</text><text transform="translate(86,67.77499717681593)" y="0.32em">0.385</text></g><g transform="translate(1166,0)" font-variant="tabular-nums" font-size="10" fill="black"><text transform="translate(86,296.0092794127636)" y="0.32em">0.337</text><text transform="translate(86,67.19234719918444)" y="0.32em">2.6</text></g><g transform="translate(1263,0)" font-variant="tabular-nums" font-size="10" fill="black"><text transform="translate(86,306.732892329726)" y="0.32em">0.104</text><text transform="translate(86,56.44460475697323)" y="0.32em">0.381</text></g><g transform="translate(1360,0)" font-variant="tabular-nums" font-size="10" fill="black"><text transform="translate(86,313.4437618222768)" y="0.32em">0.22</text><text transform="translate(86,95.25582519387842)" y="0.32em">0.419</text></g><g transform="translate(1457,0)" font-variant="tabular-nums" font-size="10" fill="black"><text transform="translate(86,322.7315730170126)" y="0.32em">0.94</text><text transform="translate(86,73.7020571324407)" y="0.32em">3.122</text></g><g transform="translate(1554,0)" font-variant="tabular-nums" font-size="10" fill="black"><text transform="translate(86,299.419051256472)" y="0.32em">0.089</text><text transform="translate(86,82.19589794921933)" y="0.32em">3.832</text></g><g transform="translate(1651,0)" font-variant="tabular-nums" font-size="10" fill="black"><text transform="translate(86,295.6643767943102)" y="0.32em">0.444</text><text transform="translate(86,74.48955219870837)" y="0.32em">0.81</text></g></g><g aria-label="rule"><g transform="translate(2,0)" stroke="currentColor"><line y2="520" y1="520" x2="127" x1="40" /></g><g transform="translate(99,0)" stroke="currentColor"><line y2="520" y1="520" x2="127" x1="40" /></g><g transform="translate(196,0)" stroke="currentColor"><line y2="520" y1="520" x2="127" x1="40" /></g><g transform="translate(293,0)" stroke="currentColor"><line y2="520" y1="520" x2="127" x1="40" /></g><g transform="translate(390,0)" stroke="currentColor"><line y2="520" y1="520" x2="127" x1="40" /></g><g transform="translate(487,0)" stroke="currentColor"><line y2="520" y1="520" x2="127" x1="40" /></g><g transform="translate(584,0)" stroke="currentColor"><line y2="520" y1="520" x2="127" x1="40" /></g><g transform="translate(681,0)" stroke="currentColor"><line y2="520" y1="520" x2="127" x1="40" /></g><g transform="translate(778,0)" stroke="currentColor"><line y2="520" y1="520" x2="127" x1="40" /></g><g transform="translate(875,0)" stroke="currentColor"><line y2="520" y1="520" x2="127" x1="40" /></g><g transform="translate(972,0)" stroke="currentColor"><line y2="520" y1="520" x2="127" x1="40" /></g><g transform="translate(1069,0)" stroke="currentColor"><line y2="520" y1="520" x2="127" x1="40" /></g><g transform="translate(1166,0)" stroke="currentColor"><line y2="520" y1="520" x2="127" x1="40" /></g><g transform="translate(1263,0)" stroke="currentColor"><line y2="520" y1="520" x2="127" x1="40" /></g><g transform="translate(1360,0)" stroke="currentColor"><line y2="520" y1="520" x2="127" x1="40" /></g><g transform="translate(1457,0)" stroke="currentColor"><line y2="520" y1="520" x2="127" x1="40" /></g><g transform="translate(1554,0)" stroke="currentColor"><line y2="520" y1="520" x2="127" x1="40" /></g><g transform="translate(1651,0)" stroke="currentColor"><line y2="520" y1="520" x2="127" x1="40" /></g></g></svg>